<svg width="24" height="25" viewBox="0 0 24 25" fill="none" xmlns="http://www.w3.org/2000/svg">
<path fill-rule="evenodd" clip-rule="evenodd" d="M7 4.02539H7.5972V9.11448L2.62823 18.65C2.37978 19.1268 2.25 19.657 2.25 20.1952C2.25 22.0344 3.73325 23.5254 5.56294 23.5254H15.6459C15.6385 23.5069 15.6313 23.4883 15.6243 23.4695L15.3664 22.7724C15.1817 22.2734 15.0537 21.9564 14.9797 21.7957C14.819 21.7217 14.502 21.5937 14.003 21.409L13.3059 21.1511C12.5211 20.8607 12 20.1123 12 19.2754C12 18.4385 12.5211 17.6901 13.3059 17.3997L14.003 17.1418C14.502 16.9571 14.819 16.829 14.9797 16.7551L15.3664 15.7783L15.6243 15.0813C15.8406 14.4968 16.3108 14.0587 16.8824 13.873L14.4027 9.11448V4.02539H15C15.5523 4.02539 16 3.57768 16 3.02539C16 2.47311 15.5523 2.02539 15 2.02539H13.4305H8.56941H7C6.44772 2.02539 6 2.47311 6 3.02539C6 3.57768 6.44772 4.02539 7 4.02539ZM9.54165 9.35547V4.02539H12.4583V9.35547C12.4583 9.51342 12.4964 9.66902 12.5693 9.80894L13.3515 11.31H8.64844L9.43065 9.80893C9.50356 9.66901 9.54165 9.51342 9.54165 9.35547ZM18.2034 15.5151C18.0945 15.2208 17.8138 15.0254 17.5 15.0254C17.1862 15.0254 16.9055 15.2208 16.7966 15.5151L16.5387 16.2121C16.1767 17.1905 16.0612 17.4563 15.8711 17.6465C15.6809 17.8366 15.4151 17.9521 14.4367 18.3141L13.7397 18.572C13.4454 18.6809 13.25 18.9616 13.25 19.2754C13.25 19.5892 13.4454 19.8699 13.7397 19.9788L14.4368 20.2367C15.4151 20.5987 15.6809 20.7142 15.8711 20.9043C16.0612 21.0945 16.1767 21.3603 16.5387 22.3386L16.7966 23.0357C16.9055 23.33 17.1862 23.5254 17.5 23.5254C17.8138 23.5254 18.0945 23.33 18.2034 23.0357L18.4613 22.3386C18.8233 21.3603 18.9388 21.0945 19.1289 20.9043C19.3191 20.7142 19.5849 20.5987 20.5633 20.2367L21.2603 19.9788C21.5546 19.8699 21.75 19.5892 21.75 19.2754C21.75 18.9616 21.5546 18.6809 21.2603 18.572L20.5633 18.3141C19.5849 17.9521 19.3191 17.8366 19.1289 17.6465C18.9388 17.4563 18.8233 17.1905 18.4613 16.2121L18.2034 15.5151Z" fill="white"/>
</svg>
